<?xml version="1.0" encoding="utf-8"?>
<!-- Generator: Adobe Illustrator 19.0.0, SVG Export Plug-In . SVG Version: 6.00 Build 0)  -->
<svg version="1.1" id="Layer_1" xmlns="http://www.w3.org/2000/svg" xmlns:xlink="http://www.w3.org/1999/xlink" x="0px" y="0px"
	 viewBox="0 0 452.1 253.3" style="enable-background:new 0 0 452.1 253.3;" xml:space="preserve">
<style type="text/css">
	.st0{fill:#FFFFFF;}
</style>
<g>
	<path class="st0" d="M133.8,180.7c-2.5-38.1,6.2-75.2,9.3-112.9c0.9-11.4,0.9-23-0.2-34.3c-1-9.5-6.2-12.9-15.9-12.8
		c-11.4,0.1-21.6,4.1-30.5,11C62.7,57.9,38,91.1,21.2,130.3c-3,6.9-5.9,13.8-9,20.6c-0.7,1.6-1.6,3.7-3,4.4
		c-2.3,1.1-5.2,1.8-7.7,1.4c-0.8-0.1-2-4.6-1.3-6.4c3.9-10.9,7.3-22.2,12.7-32.4c17.2-32.4,41-59.4,70-81.8
		c11.4-8.9,23.9-15.8,38.5-18c0.8-0.1,1.6-0.3,2.5-0.4c19.1-2.3,28.5,5.1,27.5,24.3c-0.9,17.6-4,35-6.1,52.5
		c-2.7,22.5-5.7,44.9-7.8,67.5c-0.7,7.3,0.1,15,1.6,22.3c2.3,11.5,10,16.4,21.4,13.6c6.2-1.5,12-4.6,17.8-7.3
		c3.1-1.4,3.8-3.7,2.9-7.4c-2.6-10.5-4.7-21.1-6.6-31.8c-0.9-5-0.8-10.3-1.1-15.4c-0.2-2.7-0.4-5.4-1.3-8.2
		c-5.9,16.6-7.2,34-9.2,51.3c-0.7,0-1.4,0.1-2.1,0.1c-0.7-1.3-1.6-2.6-2.2-3.9c-3.5-8.1-6.8-16.2-10.4-24.3c-1.1-2.6-2-4.7,1.3-6.2
		c3.2-1.4,4.3,1.1,5,3.3c2.1,6.8,4,13.6,6.6,20.5c0.5-4,1-8.1,1.6-12.1c1.6-9.5,3-19.1,5.1-28.5c0.8-3.4,2.9-6.7,5.1-9.5
		c2.4-2.9,4.8-2.1,5.5,1.6c0.7,3.9,0.9,8,0.8,11.9c-0.5,17.1,2.7,33.8,6.3,50.5c0.2,0.8,0.4,1.5,0.7,2.3c4-0.9,4.7-2.8,3.9-6.6
		c-3.9-18.2-6.3-36.5-3.4-55c0.6-3.7-0.2-9.2,5.1-9.4c6-0.2,4.3,5.4,4.9,9.1c0.1,0.6,0.3,1.2,1.7,2.2c0.9-2.6,1.7-5.3,2.6-7.9
		c1.2-3.4,3.5-5.3,6.9-3.4c5.2,2.8,9.8,1.3,14-1.7c6.1-4.3,11.9-9.1,17.8-13.7c1.7-1.3,3.4-2.6,5.9-3.3c-0.4,0.9-0.5,2-1.2,2.6
		c-9.2,7.9-18.4,15.9-27.8,23.6c-3.6,2.9-7.6,3.6-11.9-2.1c-1.5,4.5-2.4,8.1-3.8,11.4c-0.8,1.8-2.4,3.3-3.7,5
		c-1-1.7-2.3-3.3-2.8-5.1c-0.7-2.5-0.7-5.1-2-7.6c-3.4,18.8,0,37.3,2.6,56.7c10-6,19.4-11.7,28.8-17.4c0.4,0.5,0.8,1.1,1.2,1.6
		c-1.1,0.9-2.2,1.9-3.4,2.7c-7.1,4.7-14.1,9.5-21.4,13.9c-3,1.8-4.3,3.9-3.4,7.3c2.6,10.6,5.2,21.3,7.9,31.9
		c1.1,4.5,2.7,8.9,3.7,13.5c0.4,1.8-0.1,3.8-0.9,5.9c-15.5-12-17.9-30.7-24.7-47.4c-3.8,2.2-7.4,4.7-11.3,6.2
		c-4.9,2-10,4.1-15.2,4.5c-9.8,0.8-16.2-4.8-20.2-13.6c3.4,22.2,8.3,43.9,19.5,63.8c-0.6,0.3-1.2,0.6-1.8,0.9
		c-1.6-2.2-3.5-4.2-4.9-6.5c-7.1-12.3-10.1-26-13-39.7c-3.2-15-5.7-30.1-9.3-45c-2.7-11.3-6.6-22.3-9.8-33.5
		c-0.4-1.6,0.3-3.5,0.5-5.2c2,0.8,5,1.2,5.7,2.6c1.8,3.8,3.1,8.1,3.8,12.3C129.2,152.4,131.5,166.6,133.8,180.7z M191.1,186.9
		c-0.5-0.2-1-0.4-1.6-0.7c-0.6,1.8-2.1,3.9-1.7,5.3c3.6,10.7,7.5,21.3,11.4,31.9c0.5,1.5,1.6,2.8,2.4,4.2c0.1-0.1,0.3-0.3,0.4-0.4
		C198.5,213.8,194.8,200.3,191.1,186.9z"/>
	<path class="st0" d="M257.8,71.5c0.7,7,0.6,14.2,2.2,21c4.2,18,9.1,35.7,13.8,53.6c0.1,0.5,0.6,1,0.5,1.4c-0.3,1.8-0.7,3.5-1.1,5.3
		c-1.5-0.8-4-1.3-4.5-2.6c-3.4-8.1-7.8-16.1-9.3-24.6c-2.8-16-3.9-32.4-5.4-48.6c-0.3-3.7,0.6-7.6,1.3-11.3c0.2-1.2,1.7-2.2,2.7-3.3
		c1,0.9,2.4,1.7,3,2.8c5.2,10.2,10.2,20.6,15.4,30.8c6.2,12.2,14.6,22.7,25.2,31.3c3.6,2.9,7.3,7.7,12.6,5.2
		c5.1-2.4,4.3-8.2,4.6-12.9c0.9-16.5-4-32-8.7-47.4c-6.8-22.2-14.1-44.1-25-64.6c-1-1.9-1.3-4.1-2-6.1c0.5-0.3,1-0.6,1.5-0.8
		c1.1,1.2,2.6,2.2,3.3,3.6c12.2,24.6,24.7,49.2,32,75.8c3.8,13.8,6.1,28,8.2,42.1c0.8,5.4,0,11.3-1.2,16.8
		c-1.2,5.6-4.9,8.1-10.5,6.5c-5.6-1.6-11.4-4-16-7.5c-10.2-7.7-18-17.8-23.9-29.2c-6.2-12.3-12.1-24.7-18.2-37.1
		C258.3,71.6,258,71.6,257.8,71.5z"/>
	<path class="st0" d="M374.1,93.2c-1.6-2.1-3.9-3.9-4.7-6.2c-2.5-6.7-4.6-13.5-6.6-20.4c-2.3-8.2-4.3-16.6-6.6-25.7
		c-3.9,5.5-7.4,10.3-10.6,15.3c-0.6,1,0.3,3,0.7,4.4c2.3,7.4,5.1,14.7,6.8,22.3c0.9,3.9,0.4,8.4-0.7,12.3c-2.6,9.2-12.9,11.9-19.2,5
		c-10-10.9-14.8-23.7-11.3-38.6c2.1-9.1,6.8-11.8,16-10.3c1.4,0.2,3.4-1.2,4.6-2.4C356,34.5,369.4,20.1,383,6
		c1.7-1.8,4.4-2.7,6.6-4.1c0.3,0.4,0.6,0.9,1,1.3c-0.8,1-1.6,2-2.4,2.9c-7.9,8.1-15.7,16.3-23.7,24.2c-4.4,4.3-4.8,8.9-2.8,14.5
		c4.4,12,8.5,24.2,12.5,36.4c1.2,3.5,1.5,7.3,2.3,10.9C375.7,92.4,374.9,92.8,374.1,93.2z M338,54.5c-7-2.4-10.5-0.9-10.3,5.5
		c0.3,8.7,1.5,17.5,3.7,25.8c1,3.8,5.2,7,8.4,9.9c2,1.8,4.7,1.1,5.5-1.8c3.2-11.4,2.3-22.4-2.5-32.7c-3.1,0.3-5.3,0.5-8.8,0.8
		C335.7,58.7,336.8,56.8,338,54.5z"/>
	<path class="st0" d="M408.3,76c1.7-2.5,3.2-5.2,5-7.5c9.3-11.7,18.8-23.4,28-35.1c2-2.6,3.4-5.7,5.1-8.5c-0.4-0.5-0.8-0.9-1.2-1.4
		c-2.3,0.5-4.8,0.6-7,1.5c-6.1,2.6-12.1,5.5-18.2,8.2c-4.1,1.8-8.2,3.8-12.5,4.9c-6,1.7-11.4-3.3-9.2-9c3.6-9,8.6-17.5,13.1-26.2
		c0.6-1.1,1.9-2,3.1-2.4c1.1-0.4,3.3-0.7,3.6-0.2c0.6,1.1,0.8,2.9,0.3,4.1c-0.5,1.5-1.9,2.7-2.8,4.1c-3.9,6.2-8.1,12.2-11.6,18.6
		c-1,1.7-0.9,4.7,0,6.4c0.5,0.9,3.9,0.8,5.8,0.3c2.8-0.8,5.5-2.4,8.2-3.6c8.3-3.8,16.5-7.8,25-11.1c2.3-0.9,6.4-0.3,8.1,1.3
		c1.3,1.2,0.9,5.4-0.1,7.7c-1.6,3.8-4,7.3-6.6,10.5c-9.3,11.3-18.9,22.4-28.4,33.5c-1.8,2-4,3.7-6,5.5C409.5,77,408.9,76.5,408.3,76
		z"/>
	<path class="st0" d="M393.8,16c-3.4,11.4-15.4,20.2-10.9,35.3c2.1-3.9,3.5-7,5.4-9.7c0.8-1.2,2.7-1.6,4.2-2.4
		c-0.1,1.6,0.4,3.6-0.3,4.9c-2.2,3.9-4.9,7.5-7.3,11.3c-2.6,4.1-2.3,9.1,0.6,13c1.9,2.6,3.8,1.8,5.3-0.1c4.1-5.2,7.8-10.8,12-15.9
		c1.6-1.9,4-3.2,6.1-4.7c-0.6,2.3-0.6,5-1.9,6.9c-4.1,6.2-8.5,12.4-13.3,18.1c-1.6,1.9-5.1,4.1-7,3.5c-2.2-0.7-3.8-4-5.3-6.4
		c-1.3-2.1-2.5-4.3-3.3-6.7c-0.4-1.2,0-2.8,0.5-4c1.9-5.1,0.6-9.5-3.7-11.5c0.7-4.2,1.4-8.5,1.9-11.6c2.7-3.3,5.3-6,7.3-9
		c1.9-2.7,3-6,4.8-8.8c0.9-1.3,2.5-2.2,3.8-3.3C393,15.3,393.4,15.7,393.8,16z"/>
</g>
</svg>
