<?xml version="1.0" encoding="utf-8"?>
<!-- Generator: Adobe Illustrator 19.0.0, SVG Export Plug-In . SVG Version: 6.00 Build 0)  -->
<svg version="1.1" id="Layer_1" xmlns="http://www.w3.org/2000/svg" xmlns:xlink="http://www.w3.org/1999/xlink" x="0px" y="0px"
	 viewBox="-50 -40 1460.3 660.8" style="enable-background:new -50 -40 1460.3 660.8;" xml:space="preserve">
<style type="text/css">
	.st0{fill:#FFFFFF;}
</style>
<g id="XMLID_1_">
	<path id="XMLID_82_" class="st0" d="M1155.3,262.6c4.6-1.4,8.1-2.4,11.6-3.6c25.6-9,51.9-11.3,78.4-7.7
		c52.4,7.1,94.4,32.4,123.8,76.3c69.7,103.8,13.7,243.1-107.1,270.8c-12.5,2.9-24.9,4.2-37.8,4.2c-160.6-0.1-321.3-0.1-481.9-0.1
		c-2.6,0-5.2,0-7.9-0.1c-11.2-0.6-19.6-10.9-19.5-19.7c0-3-0.1-6-0.1-9c0-181.6,0-363,0-544.6c0-3.4,0.1-6.7,0.1-10.1
		c0.1-6.6,3.2-11.5,8.9-14.6c3.2-1.9,6.6-3.4,10.1-4.7c45.1-16.6,91.5-23.2,139.7-18.8c123.2,11.3,231.5,97.2,268.8,219.1
		c4.9,15.7,8.5,31.7,10.6,48C1153.5,252.4,1154.4,256.8,1155.3,262.6z"/>
	<path id="XMLID_81_" class="st0" d="M654.8,310c0-12-0.2-23.9,0-35.8c1.5-76.6,3-153,4.6-229.6c0-2.6,0-5.2,0.5-7.9
		c1.9-9.7,10.4-16.1,20.3-15.5c9.4,0.6,16.8,7.5,17.6,17.1c0.7,9,0.9,18,1.1,26.8c1.2,57.5,2.2,115,3.5,172.5
		c1,47.4,2.4,94.8,3.2,142.2c0.5,23.6,1.2,47,0.4,70.6c-1,29.8-3.5,59.6-5.4,89.4c-0.7,13.1-1.6,26.1-2.4,39.2
		c-0.1,1.9-0.1,3.7-0.5,5.6c-1.5,10-9.6,17-19.3,16.8c-9.7-0.1-17.8-7.2-19-17.3c-0.9-7.7-1.1-15.6-1.6-23.4
		c-2.2-40.7-4.5-81.3-6.6-121.8c-0.4-7.1,0.2-14.2,0.4-21.3c0.6-35.8,1.2-71.7,1.9-107.5C654.1,310,654.4,310,654.8,310z"/>
	<path id="XMLID_80_" class="st0" d="M642.3,330c0.6,29.8,1.5,59.7,1.6,89.5c0.1,18.7-0.7,37.3-1.5,56c-0.7,19.3-2,38.8-3,58.1
		c-0.9,16.1-1.5,32.1-2.5,48.1c-0.2,3.6-0.9,7.5-2.4,10.7c-3.2,7-11.2,11-18.5,9.9c-7.6-1.2-13.8-7-15-14.6
		c-1-6.6-1.2-13.3-1.6-20.1c-1.9-41.4-3.7-82.8-5.4-124.2c-0.4-9.4-0.1-18.7,0.1-27.9c1.4-74.7,2.9-149.3,4.2-224
		c0.7-36.9,1.4-74,2-110.9c0-3,0-6,0.4-9c1.1-9.4,8.1-15.8,17.1-16.1c9-0.2,16.6,5.6,18.6,14.6c0.5,2.5,0.5,5.2,0.5,7.9
		c1,49.3,1.9,98.5,3,147.8C640.6,260.5,641.4,295.2,642.3,330z"/>
	<path id="XMLID_79_" class="st0" d="M535.5,358.4c1-43.7,2-87.3,3-131.1c0.7-30.6,1.5-61.2,2.4-91.8c0.1-3,0.2-6,1.1-8.9
		c2.4-7.6,9.6-12.6,17-12c8.1,0.6,14.7,6.6,15.6,15c0.7,8.2,1,16.3,1.2,24.6c1.2,45.5,2.2,91,3.5,136.6c1,35.4,1.7,71,3.4,106.4
		c1.6,35.2-0.6,70.2-2.9,105.1c-1.1,18.2-2.1,36.5-3.1,54.8c-0.5,9.4-1.1,18.6-1.9,27.9c-0.2,2.5-0.6,5.2-1.7,7.5
		c-2.9,5.9-7.9,9.1-14.2,9.4c-6.9,0.2-12.5-2.7-15.5-9.1c-1.5-3.2-2.2-7.1-2.4-10.7c-1.7-32.8-3.2-65.6-5-98.4
		c-0.5-10.9-1.7-21.6-1.7-32.4c0-30.9,0.5-62,0.7-92.9C535.2,358.4,535.4,358.4,535.5,358.4z"/>
	<path id="XMLID_78_" class="st0" d="M519.5,309.2c0.7,25.7,1.5,51.5,2.1,77.2c0.5,21.2,1.5,42.5,0.7,63.7
		c-1,28.3-3.5,56.6-5.4,84.9c-1,15.2-1.9,30.6-2.9,45.8c-0.1,2.6-0.1,5.2-0.6,7.9c-1.5,7.9-8.4,13.5-15.8,13.2
		c-7.6-0.2-14.2-5.9-15.1-14c-1-8.9-1.4-17.8-1.9-26.8c-2.2-39.5-4.6-78.9-6.5-118.5c-0.5-10.7,0.2-21.6,0.5-32.4
		c1.1-43.7,2.2-87.3,3.4-131c1.1-42.9,2.4-85.8,3.5-128.7c0.2-8.2,0.4-16.5,0.6-24.6c0.1-2.6,0-5.2,0.4-7.9
		c1.1-8.1,7.4-13.5,15.3-13.5c8-0.1,14.2,5.1,15.6,13.2c0.4,2.5,0.4,5.2,0.4,7.9c1.6,56.7,3.2,113.4,4.9,170.1c0.1,4.5,0,9,0,13.5
		C519,309.2,519.2,309.2,519.5,309.2z"/>
	<path id="XMLID_77_" class="st0" d="M458.6,288.7c1.4,47,2.9,94,4,141.1c0.2,10.1-0.2,20.2-0.9,30.2c-1.7,26.1-3.7,52.1-5.5,78.2
		c-1,14.5-1.9,29.1-2.9,43.5c-0.1,2.6-0.1,5.2-0.6,7.9c-1.5,7.6-7.9,12.8-15,12.5c-7.2-0.4-13-5.9-13.6-13.8
		c-1-10.7-1.5-21.6-2.1-32.4c-2-32.4-3.9-64.9-6-97.3c-1.5-21.3-0.5-42.5,0-63.9c0.6-26.9,1.5-53.8,2.2-80.6
		c1.9-66.1,3.9-132.1,5.7-198.2c0.1-2.2,0-4.5,0.4-6.7c1.1-6.2,6-10.7,12.1-11.6c6.9-0.9,12.8,2.2,15.2,8.7c1.2,3.4,1.5,7.2,1.6,11
		c1.1,34.3,2.1,68.7,3.1,103C457,243.2,457.7,265.9,458.6,288.7L458.6,288.7z"/>
	<path id="XMLID_76_" class="st0" d="M360.8,292.7c1.1-37.7,2.1-75.5,3.2-113.1c0.5-18.3,1.2-36.5,1.9-54.9c0.1-2.2,0.2-4.5,1-6.6
		c1.9-5.7,6.9-9,12.8-8.9c5.5,0.1,10.1,3.2,11.8,8.6c0.9,2.7,1.1,5.9,1.2,8.9c1.6,48.1,3.2,96.3,4.9,144.4
		c1.9,51.9,3.7,103.8,5.7,155.6c0.6,16.8-1.7,33.5-2.6,50.3c-0.7,14.6-2.2,29.1-3.2,43.5c-1.6,22-3.1,43.9-4.7,65.9
		c-0.1,2.2-0.4,4.5-1.2,6.5c-2.1,5.4-6.4,8.2-12,8.6c-5.5,0.2-11-3.7-12.7-9.2c-0.6-1.7-0.7-3.6-0.9-5.5c-1.6-23.8-3-47.6-4.6-71.6
		c-1.1-17.5-2.2-35-3.6-52.5c-2-26.6-0.6-53,0.1-79.4c0.2-10.1,0.7-20.2,1.1-30.2c0.6-20.2,1.2-40.3,1.7-60.5
		C360.7,292.7,360.8,292.7,360.8,292.7z"/>
	<path id="XMLID_75_" class="st0" d="M339.2,305.5c1.6,41.8,3.2,83.6,4.7,125.3c0.1,4.5,0.1,9-0.1,13.3
		c-2.9,37.9-5.9,75.8-8.9,113.9c-0.7,9.7-1.5,19.3-2.2,29.1c-0.1,2.2-0.4,4.5-1,6.6c-1.4,4.6-6.2,8.1-10.9,8.2
		c-4.7,0.1-9.7-3-11.2-7.7c-1-3.1-1.5-6.6-1.7-9.9c-2.6-37.5-4.5-75.2-7.7-112.7c-2.4-27.7-1.6-55.1-0.5-82.8
		c1.4-34.3,2.4-68.6,3.6-102.9c1.4-38.8,2.9-77.6,4.2-116.4c0.2-5.6,0.2-11.2,0.5-16.8c0.1-2.6,0.2-5.2,0.7-7.7
		c1.4-6.6,6.7-11,12.6-10.4c5.6,0.5,10,4.9,10.9,11c0.2,1.5,0.2,3,0.2,4.5c0.4,7.9,1,15.6,1.2,23.4c1.7,44,3.5,88,5.1,131.9
		C339.2,305.5,339.2,305.5,339.2,305.5z"/>
	<path id="XMLID_74_" class="st0" d="M280.2,330.4c1.7,32.8,3.5,65.6,5,98.4c0.4,8.2,0.1,16.5-0.5,24.6c-2.5,30.9-5.2,61.7-7.9,92.5
		c-1.1,13-2,26.1-3.1,39c-0.2,2.6-0.2,5.2-0.9,7.7c-1.4,5.6-6.4,9.4-11.3,8.9c-4.7-0.5-8.7-4.2-9.7-9.4c-0.2-1.1-0.2-2.2-0.4-3.4
		c-1.5-19.7-2.9-39.4-4.4-59.1c-2-26.4-4.1-52.9-5.9-79.3c-0.6-10.4-0.5-20.8-0.1-31.3c0.9-22.7,2.4-45.5,3.5-68.2
		c2.4-48.9,4.6-97.7,6.9-146.5c0.1-2.2,0.1-4.5,0.7-6.6c1.2-4.5,5.5-7.5,10-7.6c4.6-0.1,8.1,2.1,9.6,6.4c1.1,3,1.5,6.5,1.7,9.9
		c0.7,11.2,1.2,22.3,1.9,33.5C277.1,270,278.6,300.2,280.2,330.4C280.2,330.5,280.2,330.4,280.2,330.4z"/>
	<path id="XMLID_73_" class="st0" d="M227.6,439.1c-1.2,15.3-2.5,30.6-3.9,45.8c-2,22.7-4,45.3-6,68c-1,10.7-1.9,21.6-2.9,32.3
		c-0.2,3-0.6,6-1.5,8.9c-1.2,4.2-5.2,6.7-9.5,6.4c-3.7-0.2-7.2-2.9-8.2-6.6c-0.6-2.1-0.7-4.4-0.9-6.6c-1.1-13.3-2.4-26.7-3.4-40.2
		c-2.6-33.8-5-67.7-7.7-101.5c-0.9-11.2,0.5-22.3,1.4-33.4c1.7-23.8,3.9-47.5,5.9-71.3c1.2-14.8,2.5-29.7,3.9-44.5
		c0.2-2.2,0.4-4.5,0.9-6.6c1-4,5.2-7,9.1-6.9c3.6,0.1,7.4,2.6,8.5,6.4c0.9,3.2,1.4,6.6,1.7,9.9c2.6,28.2,5.1,56.5,7.6,84.7
		c1.4,15.6,2.9,31.2,4.4,46.8C227.4,433.3,227.5,436.1,227.6,439.1z"/>
	<path id="XMLID_72_" class="st0" d="M126.3,438.2c0.9-12,1.7-23.4,2.6-35c2-25.3,4.1-50.5,6.1-75.8c1.2-14.5,2.5-28.9,3.7-43.4
		c0.1-1.9,0.4-3.7,0.9-5.5c1-3.5,3.9-5.6,7.5-5.7s6.9,1.7,7.7,5.2c1,4,1.6,8.1,2,12.1c2.6,28.6,5.1,57.2,7.6,85.8
		c1.2,14.5,2.4,29.1,4.2,43.4c2.1,16.5,0.2,32.7-1.4,49c-1.9,19-3.6,37.9-5.4,56.7c-1.7,19-3.5,37.9-5.2,56.7
		c-0.4,3.4-0.7,6.7-1.6,10c-0.9,3.4-4.1,5.9-7.2,6c-3.5,0.2-7.5-2.5-8.2-6.2c-1-5.1-1.5-10.4-1.9-15.6c-3.7-44.3-7.4-88.4-11-132.7
		C126.5,441.6,126.5,439.7,126.3,438.2z"/>
	<path id="XMLID_71_" class="st0" d="M112.9,438.1c-1.1,11.5-2.2,23.3-3.5,35.2c-2.6,25.9-5.4,52-8.1,77.9c-1,9.2-1.7,18.6-2.9,27.8
		c-0.4,3-0.9,5.9-1.9,8.7c-0.9,2.7-3.4,3.9-6.2,3.9c-3,0-5.1-1.5-6.1-4.1c-0.6-1.7-0.9-3.6-1.1-5.5c-2.1-22.7-4.2-45.3-6.4-68
		c-2.1-22.3-4.2-44.5-6.1-66.8c-0.5-5.2-0.7-10.5-0.2-15.6c2.5-29.1,5.2-58,7.7-86.9c1.6-18.2,3.2-36.4,4.9-54.6
		c0.2-2.2,0.4-4.5,0.9-6.6c0.7-3,3.6-5.2,6.4-5.4c2.9-0.1,5.7,1.7,6.6,5c0.7,2.9,1.4,5.9,1.6,8.7c2.5,25.9,5,52,7.5,77.9
		c1.9,18.6,3.9,37.2,5.7,55.6C112.3,429.5,112.5,433.5,112.9,438.1z"/>
	<path id="XMLID_70_" class="st0" d="M14.1,438c0.1-1.9,0.2-3.7,0.5-5.6c4.4-39.3,8.6-78.6,13-117.9c0.2-2.2,0.5-4.5,1.1-6.6
		c0.7-2.7,3.4-4.6,5.7-4.5c2.5,0.1,4.9,2,5.6,4.7c0.4,1.1,0.5,2.2,0.6,3.2c2.2,18.5,4.6,37,6.9,55.5c2.6,21.1,5.1,42.2,7.9,63.2
		c0.6,4.9,0.7,9.6,0.1,14.5c-3.5,26.9-6.9,54-10.4,80.9c-1.5,11.8-3,23.7-4.6,35.5c-0.2,1.5-0.5,3-1.1,4.2c-0.9,2.2-2.6,3.6-5.1,3.6
		c-2.5,0.1-4.4-1.2-5.2-3.5c-0.7-2-1.2-4.2-1.5-6.5c-3.2-28.9-6.4-57.7-9.5-86.7c-1-9.2-2.2-18.5-3.2-27.8
		C14.6,442.5,14.4,440.2,14.1,438z"/>
	<path id="XMLID_69_" class="st0" d="M-0.9,438.7c-1.1,7-2.1,13.6-3.1,20.2c-2.9,17.6-5.6,35.3-8.5,52.9c-0.4,2.2-0.6,4.5-1.6,6.5
		c-1,2.1-2.9,3.7-5.4,3c-1.6-0.5-3.6-1.7-4.1-3.2c-1.1-3.1-1.6-6.5-2.1-9.7c-2.5-18.1-4.6-36.2-7.4-54.3
		c-1.6-10.7-1.7-21.3-0.1-32.2c2.9-18.7,5-37.7,7.5-56.5c0.4-3,1-5.9,1.6-8.7c0.6-2.5,2.6-3.6,5-3.7c2.4-0.1,4.2,1.4,5.2,3.5
		c0.5,1,0.7,2.1,0.9,3.2c3.9,24.7,7.7,49.3,11.5,74C-1.1,435.3-1,437.1-0.9,438.7z"/>
</g>
</svg>
