<?xml version="1.0" encoding="utf-8"?>
<!-- Generator: Adobe Illustrator 19.0.0, SVG Export Plug-In . SVG Version: 6.00 Build 0)  -->
<svg version="1.1" id="Layer_1" xmlns="http://www.w3.org/2000/svg" xmlns:xlink="http://www.w3.org/1999/xlink" x="0px" y="0px"
	 viewBox="-311 94.7 656.8 532.3" style="enable-background:new -311 94.7 656.8 532.3;" xml:space="preserve">
<style type="text/css">
	.st0{fill:#FFFFFF;}
</style>
<path class="st0" d="M329.6,172.2c-22.3,8.9-46.8,15.6-71.3,20c26.7-15.6,44.5-40.1,55.7-69c-24.5,13.4-51.2,24.5-80.2,31.2
	c-22.3-24.5-55.7-40.1-91.3-40.1c-69,0-124.7,55.7-124.7,124.7c0,8.9,2.2,20,2.2,28.9c-104.7-6.7-195.9-55.7-258.3-131.4
	c-11.1,17.8-17.8,40.1-17.8,62.3c0,42.3,22.3,82.4,55.7,104.7c-20,0-40.1-6.7-55.7-15.6c0,0,0,0,0,2.2
	c0,60.1,42.3,111.3,100.2,122.5c-11.1,2.2-22.3,4.5-33.4,4.5c-8.9,0-15.6,0-24.5-2.2c15.6,49,62.3,86.8,115.8,86.8
	c-42.3,33.4-95.7,53.4-155.9,53.4c-11.1,0-20,0-28.9-2.2c55.7,35.6,120.2,55.7,191.5,55.7C138,608.6,265,417.1,265,252.3
	c0-4.5,0-11.1,0-15.6C291.8,219,311.8,196.7,329.6,172.2z"/>
</svg>
