<?xml version="1.0" encoding="utf-8"?>
<!-- Generator: Adobe Illustrator 20.0.0, SVG Export Plug-In . SVG Version: 6.00 Build 0)  -->
<svg version="1.1" id="Layer_1" xmlns="http://www.w3.org/2000/svg" xmlns:xlink="http://www.w3.org/1999/xlink" x="0px" y="0px"
	 viewBox="0 0 656.8 532.3" style="enable-background:new 0 0 656.8 532.3;" xml:space="preserve">
<style type="text/css">
	.st0{fill:none;stroke:#FFFFFF;stroke-width:40;stroke-linejoin:round;stroke-miterlimit:10;}
</style>
<path class="st0" d="M634.6,76.9c-22.3,8.9-46.8,15.6-71.3,20c26.7-15.6,44.5-40.1,55.7-69c-24.5,13.4-51.2,24.5-80.2,31.2
	C516.5,34.6,483.1,19,447.5,19c-69,0-124.7,55.7-124.7,124.7c0,8.9,2.2,20,2.2,28.9c-104.7-6.7-195.9-55.7-258.3-131.4
	C55.6,59,48.9,81.3,48.9,103.5c0,42.3,22.3,82.4,55.7,104.7c-20,0-40.1-6.7-55.7-15.6c0,0,0,0,0,2.2c0,60.1,42.3,111.3,100.2,122.5
	c-11.1,2.2-22.3,4.5-33.4,4.5c-8.9,0-15.6,0-24.5-2.2c15.6,49,62.3,86.8,115.8,86.8c-42.3,33.4-95.7,53.4-155.9,53.4
	c-11.1,0-20,0-28.9-2.2c55.7,35.6,120.2,55.7,191.5,55.7C443,513.3,570,321.8,570,157c0-4.5,0-11.1,0-15.6
	C596.8,123.7,616.8,101.4,634.6,76.9z"/>
</svg>
