<?xml version="1.0" encoding="utf-8"?>
<!-- Generator: Adobe Illustrator 20.0.0, SVG Export Plug-In . SVG Version: 6.00 Build 0)  -->
<svg version="1.1" id="Layer_1" xmlns="http://www.w3.org/2000/svg" xmlns:xlink="http://www.w3.org/1999/xlink" x="0px" y="0px"
	 viewBox="0 0 666.6 522.2" style="enable-background:new 0 0 666.6 522.2;" xml:space="preserve">
<style type="text/css">
	.st0{fill:none;stroke:#FFFFFF;stroke-width:40;stroke-linejoin:round;stroke-miterlimit:10;}
</style>
<g>
	<path class="st0" d="M19.4,294.1c0-22.3,0-44.7,0-67c0.3-1.4,0.7-2.9,0.8-4.3c1.4-22.6,2.7-45.2,4.2-67.8
		c2.1-31.6,13-59.7,34.4-83.2C72.2,57,88.6,47.6,109.2,46.5c15.6-0.8,31.2-2.5,46.8-3.2c35.8-1.5,71.6-3.2,107.4-3.8
		c100-1.7,199.9,0.8,299.7,7.7c17.1,1.2,31.9,7.9,44.1,20c18,17.8,27.7,40,31,64.6c3.2,23.7,4,47.8,5.9,71.7
		c0.5,6.6,1,13.2,1.4,19.9c0,23,0,46,0,69c-0.2,1.5-0.6,2.9-0.7,4.4c-1.4,22.8-3,45.5-4.1,68.3c-1.5,30-11.9,56.5-30.6,79.7
		c-12.4,15.4-27.7,27.5-47.7,30.6c-16.1,2.5-32.5,3.1-48.8,3.7c-42.6,1.7-85.2,3.5-127.9,4.1c-91.6,1.3-183.2-1-274.7-6.7
		c-18.8-1.2-34.3-8.4-47.6-21.1c-20.4-19.5-32.4-43.7-36.6-71.1c-3.5-23.3-4.1-47.1-6-70.6C20.3,307,19.9,300.5,19.4,294.1z
		 M254.3,371.8c65.2-37.4,129.9-74.5,195.5-112.1c-65.7-37.7-130.3-74.7-195.5-112.1C254.3,222.6,254.3,296.7,254.3,371.8z"/>
	<path class="st0" d="M254.3,371.8c0-75.1,0-149.1,0-224.3c65.2,37.4,129.8,74.4,195.5,112.1C384.2,297.3,319.5,334.4,254.3,371.8z"
		/>
</g>
</svg>
